<svg xmlns="http://www.w3.org/2000/svg" style="display:none">
  <defs>

    <!-- ══ Social / Profile icons ══════════════════════════════════════ -->

    <!-- GitHub — Simple Icons -->
    <symbol id="icon-github" viewBox="0 0 24 24">
      <path d="M12 .297c-6.63 0-12 5.373-12 12 0 5.303 3.438 9.8 8.205 11.385.6.113.82-.258.82-.577 0-.285-.01-1.04-.015-2.04-3.338.724-4.042-1.61-4.042-1.61C4.422 18.07 3.633 17.7 3.633 17.7c-1.087-.744.084-.729.084-.729 1.205.084 1.838 1.236 1.838 1.236 1.07 1.835 2.809 1.305 3.495.998.108-.776.417-1.305.76-1.605-2.665-.3-5.466-1.332-5.466-5.93 0-1.31.465-2.38 1.235-3.22-.135-.303-.54-1.523.105-3.176 0 0 1.005-.322 3.3 1.23.96-.267 1.98-.399 3-.405 1.02.006 2.04.138 3 .405 2.28-1.552 3.285-1.23 3.285-1.23.645 1.653.24 2.873.12 3.176.765.84 1.23 1.91 1.23 3.22 0 4.61-2.805 5.625-5.475 5.92.42.36.81 1.096.81 2.22 0 1.606-.015 2.896-.015 3.286 0 .315.21.69.825.57C20.565 22.092 24 17.592 24 12.297c0-6.627-5.373-12-12-12"/>
    </symbol>

    <!-- GitLab — Simple Icons -->
    <symbol id="icon-gitlab" viewBox="0 0 24 24">
      <path d="M4.845.904a.9.9 0 0 0-.864.607L.033 12.604a1.364 1.364 0 0 0 .495 1.524L12 23.095l11.472-8.967a1.364 1.364 0 0 0 .495-1.524L20.02 1.511a.9.9 0 0 0-.864-.607.9.9 0 0 0-.864.607l-2.97 9.139H8.683L5.71 1.511A.9.9 0 0 0 4.845.904z"/>
    </symbol>

    <!-- Bitbucket — Simple Icons -->
    <symbol id="icon-bitbucket" viewBox="0 0 24 24">
      <path d="M.778 1.213a.768.768 0 0 0-.768.892l3.263 19.81c.084.5.515.868 1.022.873H19.95a.772.772 0 0 0 .77-.646l3.27-20.03a.768.768 0 0 0-.768-.891L.778 1.213zM14.52 15.53H9.522L8.17 8.466h7.561l-1.211 7.064z"/>
    </symbol>

    <!-- LinkedIn — Simple Icons -->
    <symbol id="icon-linkedin" viewBox="0 0 24 24">
      <path d="M20.447 20.452h-3.554v-5.569c0-1.328-.027-3.037-1.852-3.037-1.853 0-2.136 1.445-2.136 2.939v5.667H9.351V9h3.414v1.561h.046c.477-.9 1.637-1.85 3.37-1.85 3.601 0 4.267 2.37 4.267 5.455v6.286zM5.337 7.433a2.062 2.062 0 0 1-2.063-2.065 2.064 2.064 0 1 1 2.063 2.065zm1.782 13.019H3.555V9h3.564v11.452zM22.225 0H1.771C.792 0 0 .774 0 1.729v20.542C0 23.227.792 24 1.771 24h20.451C23.2 24 24 23.227 24 22.271V1.729C24 .774 23.2 0 22.222 0h.003z"/>
    </symbol>

    <!-- YouTube — Simple Icons -->
    <symbol id="icon-youtube" viewBox="0 0 24 24">
      <path d="M23.495 6.205a3.007 3.007 0 0 0-2.088-2.088c-1.87-.501-9.396-.501-9.396-.501s-7.507-.01-9.396.501A3.007 3.007 0 0 0 .527 6.205a31.247 31.247 0 0 0-.522 5.805 31.247 31.247 0 0 0 .522 5.783 3.007 3.007 0 0 0 2.088 2.088c1.868.502 9.396.502 9.396.502s7.506 0 9.396-.502a3.007 3.007 0 0 0 2.088-2.088 31.247 31.247 0 0 0 .5-5.783 31.247 31.247 0 0 0-.5-5.805zM9.609 15.601V8.408l6.264 3.602z"/>
    </symbol>

    <!-- Reddit — Simple Icons -->
    <symbol id="icon-reddit" viewBox="0 0 24 24">
      <path d="M12 0A12 12 0 0 0 0 12a12 12 0 0 0 12 12 12 12 0 0 0 12-12A12 12 0 0 0 12 0zm5.01 4.744c.688 0 1.25.561 1.25 1.249a1.25 1.25 0 0 1-2.498.056l-2.597-.547-.8 3.747c1.824.07 3.48.632 4.674 1.488.308-.309.73-.491 1.207-.491.968 0 1.754.786 1.754 1.754 0 .716-.435 1.333-1.01 1.614a3.111 3.111 0 0 1 .042.52c0 2.694-3.13 4.87-7.004 4.87-3.874 0-7.004-2.176-7.004-4.87 0-.183.015-.366.043-.534A1.748 1.748 0 0 1 4.028 12c0-.968.786-1.754 1.754-1.754.463 0 .898.196 1.207.49 1.207-.883 2.878-1.43 4.744-1.487l.885-4.182a.342.342 0 0 1 .14-.197.35.35 0 0 1 .238-.042l2.906.617a1.214 1.214 0 0 1 1.108-.701zM9.25 12C8.561 12 8 12.562 8 13.25c0 .687.561 1.248 1.25 1.248.687 0 1.248-.561 1.248-1.249 0-.688-.561-1.249-1.249-1.249zm5.5 0c-.687 0-1.248.561-1.248 1.25 0 .687.561 1.248 1.249 1.248.688 0 1.249-.561 1.249-1.249 0-.687-.562-1.249-1.25-1.249zm-5.466 3.99a.327.327 0 0 0-.231.094.33.33 0 0 0 0 .463c.842.842 2.484.913 2.961.913.477 0 2.105-.056 2.961-.913a.361.361 0 0 0 .029-.463.33.33 0 0 0-.464 0c-.547.533-1.684.73-2.512.73-.828 0-1.979-.196-2.512-.73a.326.326 0 0 0-.232-.095z"/>
    </symbol>

    <!-- Mastodon — Simple Icons -->
    <symbol id="icon-mastodon" viewBox="0 0 24 24">
      <path d="M23.268 5.313c-.35-2.578-2.617-4.61-5.304-5.004C17.51.242 15.792 0 11.813 0h-.03c-3.98 0-4.835.242-5.288.309C3.882.692 1.496 2.518.917 5.127.64 6.412.61 7.837.661 9.143c.074 1.874.088 3.745.26 5.611.118 1.24.325 2.47.62 3.68.55 2.237 2.777 4.098 4.96 4.857 2.336.792 4.849.923 7.256.38.265-.061.527-.132.786-.213.585-.184 1.27-.39 1.774-.753a.057.057 0 0 0 .023-.043v-1.809a.052.052 0 0 0-.02-.041.053.053 0 0 0-.046-.01 20.282 20.282 0 0 1-4.709.545c-2.73 0-3.463-1.284-3.674-1.818a5.593 5.593 0 0 1-.319-1.433.053.053 0 0 1 .066-.054c1.517.363 3.072.546 4.632.546.376 0 .75 0 1.125-.01 1.57-.044 3.224-.124 4.768-.422.038-.008.077-.015.11-.024 2.435-.464 4.753-1.92 4.989-5.604.008-.145.03-1.52.03-1.67.002-.512.167-3.63-.024-5.545zm-3.748 9.195h-2.561V8.29c0-1.309-.55-1.976-1.67-1.976-1.23 0-1.846.79-1.846 2.35v3.403h-2.546V8.663c0-1.56-.617-2.35-1.848-2.35-1.112 0-1.668.668-1.67 1.977v6.218H4.822V8.102c0-1.31.337-2.35 1.011-3.12.696-.77 1.608-1.164 2.74-1.164 1.311 0 2.302.5 2.962 1.498l.638 1.06.638-1.06c.66-.999 1.65-1.498 2.96-1.498 1.13 0 2.043.395 2.74 1.164.675.77 1.012 1.81 1.012 3.12z"/>
    </symbol>

    <!-- ORCID — Simple Icons -->
    <symbol id="icon-orcid" viewBox="0 0 24 24">
      <path d="M12 0C5.372 0 0 5.372 0 12s5.372 12 12 12 12-5.372 12-12S18.628 0 12 0zM7.369 4.378c.525 0 .947.431.947.947s-.422.947-.947.947a.95.95 0 0 1-.947-.947c0-.525.422-.947.947-.947zm-.722 3.038h1.444v10.041H6.647V7.416zm3.562 0h3.9c3.712 0 5.344 2.653 5.344 5.025 0 2.578-2.016 5.025-5.325 5.025h-3.919V7.416zm1.444 1.303v7.444h2.297c3.272 0 4.022-2.484 4.022-3.722 0-2.016-1.284-3.722-4.097-3.722h-2.222z"/>
    </symbol>

    <!-- ResearchGate — Simple Icons -->
    <symbol id="icon-researchgate" viewBox="0 0 24 24">
      <path d="M19.586 0c-.818 0-1.508.19-2.073.565-.563.377-.97.936-1.213 1.68a3.193 3.193 0 0 0-.112.437 8.365 8.365 0 0 0-.078.53 9 9 0 0 0-.05.727c-.01.282-.013.621-.013 1.016a31.121 31.123 0 0 0 .014 1.017 9 9 0 0 0 .05.727 7.946 7.946 0 0 0 .077.53h-.005a3.334 3.334 0 0 0 .113.438c.245.743.65 1.303 1.214 1.68.565.376 1.256.564 2.075.564.8 0 1.536-.213 2.105-.603.57-.39.94-.916 1.175-1.65.076-.235.135-.558.177-.93a10.9 10.9 0 0 0 .043-1.207v-.82c0-.095-.047-.142-.14-.142h-3.064c-.094 0-.14.047-.14.141v.956c0 .094.046.14.14.14h1.666c.056 0 .084.03.084.086 0 .36 0 .62-.036.865-.038.244-.1.447-.147.606-.108.385-.348.664-.638.876-.29.212-.738.35-1.227.35-.545 0-.901-.15-1.21-.353-.306-.203-.517-.454-.67-.915a3.136 3.136 0 0 1-.147-.762 17.366 17.367 0 0 1-.034-.656c-.01-.26-.014-.572-.014-.939a26.401 26.403 0 0 1 .014-.938 15.821 15.822 0 0 1 .035-.656 3.19 3.19 0 0 1 .148-.76 1.89 1.89 0 0 1 .742-1.01c.344-.244.593-.352 1.137-.352.508 0 .815.096 1.144.303.33.207.528.492.764.925.047.094.111.118.198.07l1.044-.43c.075-.048.09-.115.042-.199a3.549 3.549 0 0 0-.466-.742 3 3 0 0 0-.679-.607 3.313 3.313 0 0 0-.903-.41A4.068 4.068 0 0 0 19.586 0zM8.217 5.836c-1.69 0-3.036.086-4.297.086-1.146 0-2.291 0-3.007-.029v.831l1.088.2c.744.144 1.174.488 1.174 2.264v11.288c0 1.777-.43 2.12-1.174 2.263l-1.088.2v.832c.773-.029 2.12-.086 3.465-.086 1.29 0 2.951.057 3.667.086v-.831l-1.49-.2c-.773-.115-1.174-.487-1.174-2.264v-4.784c.688.057 1.29.057 2.206.057 1.748 3.123 3.41 5.472 4.355 6.56.86 1.032 2.177 1.691 3.839 1.691.487 0 1.003-.086 1.318-.23v-.744c-1.031 0-2.063-.716-2.808-1.518-1.26-1.376-2.95-3.582-4.355-6.074 2.32-.545 4.04-2.722 4.04-4.9 0-3.208-2.492-4.698-5.758-4.698zm-.515 1.29c2.406 0 3.839 1.26 3.839 3.552 0 2.263-1.547 3.782-4.097 3.782-.974 0-1.404-.03-2.063-.086v-7.19c.66-.059 1.547-.059 2.32-.059z"/>
    </symbol>

    <!-- SlideShare — Simple Icons -->
    <symbol id="icon-slideshare" viewBox="0 0 24 24">
      <path d="M3.222.21C1.762.21 1.06 1.337 1.06 2.497v7.883c-.53-.502-1.096-.15-1.058.295.038.439.59 1.546 1.436 2.517.843.968 1.924 1.776 2.94 2.268a11.19 11.19 0 00-.491 3.598c.09 1.096.378 1.95.903 2.75.918 1.407 2.32 1.985 3.674 1.985 1.209 0 2.494-.563 2.698-2.373v-4.694c1.308.552 3.47.363 4.47-.39.19-.14.326-.207.416-.113.095.09.106.166-.113.439a5.6 5.6 0 01-3.103 1.965l.008 2.72a2.532 2.532 0 002.543 2.446c1.64.015 2.48-.556 3.148-1.164.632-.567 1.399-1.754 1.558-3.243a10.128 10.128 0 00-.454-3.926 10.358 10.358 0 002.948-2.268C23.213 12.5 24 11.185 24 10.675c0-.51-.556-.782-1.036-.302V2.497c0-.824-.48-2.29-2.135-2.29zm.423 1.35H20.41c.756 0 1.17.28 1.17 1.224v8.904a8.73 8.73 0 01-3.555 1.534c-1.606.352-2.94.087-3.666.148-.718.06-1.428.529-1.296 1.79-.491-.154-1.236-.683-1.682-1.117-.438-.428-.87-.711-1.534-.692-1.013.03-1.663.102-2.57.01a9.656 9.656 0 01-4.838-1.786V2.78c0-.87.378-1.22 1.206-1.22zm4.497 4.988a2.994 2.994 0 100 5.987 2.993 2.993 0 000-5.983zm7.71 0a2.994 2.994 0 100 5.987 2.993 2.993 0 000-5.983z"/>
    </symbol>

    <!-- Stack Exchange — Simple Icons -->
    <symbol id="icon-stackexchange" viewBox="0 0 24 24">
      <path d="M18.986.066L.5 8.355v2.197l18.487-8.29V.066zM.5 14.887h18.487v-2.197H.5v2.197zM.5 19.944h18.487v-2.197H.5v2.197zM.5 24h18.487v-1.613H.5V24zM22.5 21.056h-2.027v2.197H22.5V24H24V21.056h-1.5zm0-6.504h-2.027v2.197H22.5v1.448H24v-4.595h-1.5v.95zM22.5 8.45h-2.027v2.197H22.5v1.448H24V7.5h-1.5v.95zM22.5.512h-2.027v2.197H22.5v1.448H24V0h-1.5v.512z"/>
    </symbol>

    <!-- Trello — Simple Icons -->
    <symbol id="icon-trello" viewBox="0 0 24 24">
      <path d="M21 0H3C1.343 0 0 1.343 0 3v18c0 1.656 1.343 3 3 3h18c1.656 0 3-1.344 3-3V3c0-1.657-1.344-3-3-3zM10.44 18.18c0 .795-.645 1.44-1.44 1.44H4.56c-.795 0-1.44-.645-1.44-1.44V4.56c0-.795.645-1.44 1.44-1.44H9c.795 0 1.44.645 1.44 1.44v13.62zm10.44-6c0 .794-.645 1.44-1.44 1.44H15c-.795 0-1.44-.646-1.44-1.44V4.56c0-.795.645-1.44 1.44-1.44h4.44c.795 0 1.44.645 1.44 1.44v7.62z"/>
    </symbol>

    <!-- DeviantArt — Simple Icons -->
    <symbol id="icon-deviantart" viewBox="0 0 24 24">
      <path d="M19.207 4.794l.23-.43V0h-4.04l-.58 1.11-.145.27-5.238 9.41H6.32V14.167h1.82l-.87 1.662-.23.44V20h4.04l.578-1.106.145-.273 5.24-9.406h3.114V5.84h-1.82l.87-1.045z"/>
    </symbol>

    <!-- Goodreads — Simple Icons -->
    <symbol id="icon-goodreads" viewBox="0 0 24 24">
      <path d="M17.346.026c.422-.083.859.037 1.179.325.346.284.55.705.557 1.153-.023.457-.247.88-.612 1.156l-2.182 1.748a.601.601 0 0 0-.255.43.52.52 0 0 0 .11.424 5.886 5.886 0 0 1 .832 6.58c-1.394 2.79-4.503 3.99-7.501 2.927a.792.792 0 0 0-.499-.01c-.224.07-.303.18-.453.383l-.014.02-.941 1.254s-.792.985.457.935c3.027-.119 3.817-.119 5.439-.01 2.641.18 3.806 1.903 3.806 3.275 0 1.623-1.036 3.383-3.809 3.383a117.46 117.46 0 0 0-5.517-.03c-.31.005-.597.013-.835.02-.228.006-.41.011-.52.011-.712 0-1.648-.186-1.66-1.068-.008-.729.624-1.12 1.11-1.172.43-.045.815.007 1.24.064.252.034.518.07.815.088.185.011.366.025.552.038.53.038 1.102.08 1.926.087.427.005.759.01 1.025.015.695.012.941.016 1.28-.015 1.248-.112 1.832-.61 1.832-1.376 0-.805-.584-1.264-1.698-1.414-1.564-.213-2.33-.163-3.72-.074a87.66 87.66 0 0 1-1.669.095c-.608.029-2.449.026-2.682-1.492-.053-.416-.073-1.116.807-2.325l.75-1.003c.36-.49.582-.898.053-1.559 0 0-.39-.468-.52-.638-1.215-1.587-1.512-4.08-.448-6.114 1.577-3.011 5.4-4.26 8.37-2.581.253.143.438.203.655.163.201-.032.27-.167.363-.344.02-.04.042-.082.067-.126.004-.01.241-.465.535-1.028l.734-1.41a1.493 1.493 0 0 1 1.041-.785ZM9.193 13.243c1.854.903 3.912.208 5.254-2.47 1.352-2.699.827-5.11-1.041-6.023C10.918 3.537 8.81 5.831 8.017 7.41c-1.355 2.698-.717 4.886 1.147 5.818Z"/>
    </symbol>

    <!-- Skype — Simple Icons -->
    <symbol id="icon-skype" viewBox="0 0 24 24">
      <path d="M12.069 18.874c-4.023 0-5.82-1.979-5.82-3.464 0-.765.561-1.296 1.333-1.296 1.723 0 1.273 2.477 4.487 2.477 1.641 0 2.55-.895 2.55-1.811 0-.551-.269-1.16-1.354-1.429l-3.576-.895c-2.88-.724-3.403-2.286-3.403-3.751 0-3.047 2.861-4.191 5.549-4.191 2.471 0 5.393 1.373 5.393 3.199 0 .784-.688 1.24-1.453 1.24-1.469 0-1.198-2.037-4.164-2.037-1.469 0-2.292.664-2.292 1.617s1.153 1.258 2.157 1.487l2.637.587c2.891.649 3.624 2.346 3.624 3.944 0 2.476-1.902 4.324-5.722 4.324m11.084-4.882l-.029.135-.044-.24c.015.045.044.074.059.12.12-.675.181-1.363.181-2.052 0-1.529-.301-3.012-.898-4.42-.569-1.348-1.395-2.562-2.427-3.596-1.049-1.033-2.247-1.856-3.595-2.426-1.318-.631-2.801-.93-4.328-.93-.72 0-1.444.07-2.143.204l.119.06-.239-.033.119-.025C8.91.274 7.829 0 6.731 0c-1.789 0-3.47.698-4.736 1.967C.729 3.235.032 4.923.032 6.716c0 1.143.292 2.265.844 3.258l.02-.124.041.239-.06-.115c-.114.645-.172 1.299-.172 1.955 0 1.53.3 3.017.884 4.416.568 1.362 1.378 2.576 2.427 3.609 1.034 1.05 2.247 1.857 3.595 2.442 1.394.6 2.877.898 4.404.898.659 0 1.334-.06 1.977-.179l-.119-.062.24.046-.135.03c1.002.569 2.126.871 3.294.871 1.783 0 3.459-.69 4.733-1.963 1.259-1.259 1.962-2.951 1.962-4.749 0-1.138-.299-2.262-.853-3.266"/>
    </symbol>

    <!-- ShaderToy — Simple Icons -->
    <symbol id="icon-shadertoy" viewBox="0 0 24 24">
      <path d="M11.842 0 0 6.2v11.6L11.842 24 24 17.8V6.2zm-.78 1.99 9.21 5.09-3.44 1.9-9.21-5.09zM2.27 7.08l9.21 5.09v9.79l-9.21-5.09zm11.21 14.88v-9.79l3.44-1.9v5.25l2.32-1.28V8.99l1.45-.8v9.79z"/>
    </symbol>

    <!-- GameDev.net — gamepad icon -->
    <symbol id="icon-gamedevnet" viewBox="0 0 24 24">
      <path d="M17 4H7a7 7 0 000 14h10A7 7 0 0017 4zM7 15a1 1 0 110-2 1 1 0 010 2zm0-4a1 1 0 110-2 1 1 0 010 2zm4 2H9v-2h2V9h2v2h2v2h-2v2h-2v-2zm6 2a1 1 0 110-2 1 1 0 010 2zm0-4a1 1 0 110-2 1 1 0 010 2z"/>
    </symbol>

    <!-- Mail — envelope -->
    <!-- Bluesky — Simple Icons -->
    <symbol id="icon-bluesky" viewBox="0 0 24 24">
      <path d="M12 10.8c-1.087-2.114-4.046-6.053-6.798-7.995C2.566.944 1.561 1.266.902 1.565.139 1.908 0 3.08 0 3.768c0 .69.378 5.65.624 6.479.815 2.736 3.713 3.66 6.383 3.364.136-.02.275-.039.415-.056-.138.022-.276.04-.415.056-3.912.58-7.387 2.005-2.83 7.078 5.013 5.19 6.87-1.113 7.823-4.308.953 3.195 2.05 9.271 7.733 4.308 4.267-4.308 1.172-6.498-2.74-7.078a8.741 8.741 0 0 1-.415-.056c.14.017.279.036.415.056 2.67.297 5.568-.628 6.383-3.364.246-.828.624-5.79.624-6.478 0-.69-.139-1.861-.902-2.204-.659-.299-1.664-.62-4.3 1.24C16.046 4.748 13.087 8.687 12 10.8Z"/>
    </symbol>

    <symbol id="icon-mail" viewBox="0 0 24 24">
      <path d="M2.003 5.884L10 9.882l7.997-3.998A2 2 0 0016 4H4a2 2 0 00-1.997 1.884z"/>
      <path d="M18 8.118l-8 4-8-4V14a2 2 0 002 2h12a2 2 0 002-2V8.118z"/>
    </symbol>

    <!-- ══ UI / Shell icons ══════════════════════════════════════════════ -->

    <symbol id="icon-theme-sun" viewBox="0 0 24 24">
      <circle cx="12" cy="12" r="5"/>
      <line x1="12" y1="1"    x2="12" y2="3"/>
      <line x1="12" y1="21"   x2="12" y2="23"/>
      <line x1="4.22" y1="4.22"   x2="5.64"  y2="5.64"/>
      <line x1="18.36" y1="18.36" x2="19.78" y2="19.78"/>
      <line x1="1"  y1="12" x2="3"  y2="12"/>
      <line x1="21" y1="12" x2="23" y2="12"/>
      <line x1="4.22"  y1="19.78" x2="5.64"  y2="18.36"/>
      <line x1="18.36" y1="5.64"  x2="19.78" y2="4.22"/>
    </symbol>

    <symbol id="icon-theme-moon" viewBox="0 0 24 24">
      <path d="M21 12.79A9 9 0 1 1 11.21 3 7 7 0 0 0 21 12.79z"/>
    </symbol>

    <symbol id="icon-glitch-wave" viewBox="0 0 24 24">
      <path d="M2 12h4l3-9 4 18 3-9h4"/>
      <line x1="2" y1="2" x2="22" y2="22" class="glitch-off-line"/>
    </symbol>

    <!-- ══ Navigation icons ═════════════════════════════════════════════ -->

    <symbol id="icon-nav-home" viewBox="0 0 24 24">
      <path d="M3 9l9-7 9 7v11a2 2 0 0 1-2 2H5a2 2 0 0 1-2-2z"/>
      <polyline points="9 22 9 12 15 12 15 22"/>
    </symbol>

    <symbol id="icon-nav-portfolio" viewBox="0 0 24 24">
      <circle cx="13.5" cy="6.5" r=".5" fill="currentColor"/>
      <circle cx="17.5" cy="10.5" r=".5" fill="currentColor"/>
      <circle cx="8.5" cy="7.5" r=".5" fill="currentColor"/>
      <circle cx="6.5" cy="12.5" r=".5" fill="currentColor"/>
      <path d="M12 2C6.5 2 2 6.5 2 12s4.5 10 10 10c.926 0 1.648-.746 1.648-1.688 0-.437-.18-.835-.437-1.125-.29-.289-.438-.652-.438-1.125a1.64 1.64 0 0 1 1.668-1.668h1.996c3.051 0 5.555-2.503 5.555-5.554C21.965 6.012 17.461 2 12 2z"/>
    </symbol>

    <symbol id="icon-nav-blog" viewBox="0 0 24 24">
      <path d="M12 20h9"/>
      <path d="M16.5 3.5a2.121 2.121 0 0 1 3 3L7 19l-4 1 1-4L16.5 3.5z"/>
    </symbol>

    <symbol id="icon-nav-publications" viewBox="0 0 24 24">
      <path d="M2 3h6a4 4 0 0 1 4 4v14a3 3 0 0 0-3-3H2z"/>
      <path d="M22 3h-6a4 4 0 0 0-4 4v14a3 3 0 0 1 3-3h7z"/>
    </symbol>

    <symbol id="icon-nav-resume" viewBox="0 0 24 24">
      <path d="M14 2H6a2 2 0 0 0-2 2v16a2 2 0 0 0 2 2h12a2 2 0 0 0 2-2V8z"/>
      <polyline points="14 2 14 8 20 8"/>
      <line x1="16" y1="13" x2="8" y2="13"/>
      <line x1="16" y1="17" x2="8" y2="17"/>
      <polyline points="10 9 9 9 8 9"/>
    </symbol>

    <!-- ══ View-toggle icons ════════════════════════════════════════════ -->

    <symbol id="icon-list-view" viewBox="0 0 48 48">
      <rect x="2"  y="2"  width="8"  height="8"/>
      <rect x="14" y="2"  width="32" height="8"/>
      <rect x="2"  y="14" width="8"  height="8"/>
      <rect x="14" y="14" width="32" height="8"/>
      <rect x="2"  y="26" width="8"  height="8"/>
      <rect x="14" y="26" width="32" height="8"/>
      <rect x="2"  y="38" width="8"  height="8"/>
      <rect x="14" y="38" width="32" height="8"/>
    </symbol>

    <symbol id="icon-thumbnail-view" viewBox="0 0 48 48">
      <rect x="2"  y="2"  width="20" height="20"/>
      <rect x="26" y="2"  width="20" height="20"/>
      <rect x="2"  y="26" width="20" height="20"/>
      <rect x="26" y="26" width="20" height="20"/>
    </symbol>

    <!-- ══ Download / attachment icons (stroke outline, Heroicons style) ═ -->

    <!-- PDF — document with folded corner + "PDF" lines -->
    <symbol id="icon-dl-pdf" viewBox="0 0 24 24">
      <path stroke-linejoin="round" d="M19.5 14.25v-2.625a3.375 3.375 0 0 0-3.375-3.375h-1.5A1.125 1.125 0 0 1 13.5 7.125v-1.5a3.375 3.375 0 0 0-3.375-3.375H8.25m2.25 0H5.625c-.621 0-1.125.504-1.125 1.125v17.25c0 .621.504 1.125 1.125 1.125h12.75c.621 0 1.125-.504 1.125-1.125V11.25a9 9 0 0 0-9-9Z"/>
      <line x1="8" y1="15" x2="16" y2="15"/>
      <line x1="8" y1="18" x2="13" y2="18"/>
      <line x1="8" y1="12" x2="11" y2="12"/>
    </symbol>

    <!-- BibTeX / Citation — document with tag mark -->
    <symbol id="icon-dl-tex" viewBox="0 0 24 24">
      <path stroke-linejoin="round" d="M19.5 14.25v-2.625a3.375 3.375 0 0 0-3.375-3.375h-1.5A1.125 1.125 0 0 1 13.5 7.125v-1.5a3.375 3.375 0 0 0-3.375-3.375H8.25m2.25 0H5.625c-.621 0-1.125.504-1.125 1.125v17.25c0 .621.504 1.125 1.125 1.125h12.75c.621 0 1.125-.504 1.125-1.125V11.25a9 9 0 0 0-9-9Z"/>
      <path d="M8.5 15 10 13l1.5 2M11 14h-2M13 13l1.5 4M14.5 15h2"/>
    </symbol>

    <!-- Plain text — document with content lines -->
    <symbol id="icon-dl-txt" viewBox="0 0 24 24">
      <path stroke-linejoin="round" d="M19.5 14.25v-2.625a3.375 3.375 0 0 0-3.375-3.375h-1.5A1.125 1.125 0 0 1 13.5 7.125v-1.5a3.375 3.375 0 0 0-3.375-3.375H8.25m2.25 0H5.625c-.621 0-1.125.504-1.125 1.125v17.25c0 .621.504 1.125 1.125 1.125h12.75c.621 0 1.125-.504 1.125-1.125V11.25a9 9 0 0 0-9-9Z"/>
      <line x1="8" y1="13" x2="16" y2="13"/>
      <line x1="8" y1="16" x2="16" y2="16"/>
      <line x1="8" y1="19" x2="12" y2="19"/>
    </symbol>

    <!-- Link / HTML / Web — chain link icon -->
    <symbol id="icon-dl-link" viewBox="0 0 24 24">
      <path d="M13.19 8.688a4.5 4.5 0 0 1 1.242 7.244l-4.5 4.5a4.5 4.5 0 0 1-6.364-6.364l1.757-1.757m13.35-.622 1.757-1.757a4.5 4.5 0 0 0-6.364-6.364l-4.5 4.5a4.5 4.5 0 0 0 1.242 7.244"/>
    </symbol>

    <!-- ZIP / Archive — inbox-arrow-down style -->
    <symbol id="icon-dl-zip" viewBox="0 0 24 24">
      <path stroke-linejoin="round" d="M3 16.5v2.25A2.25 2.25 0 0 0 5.25 21h13.5A2.25 2.25 0 0 0 21 18.75V16.5M16.5 12 12 16.5m0 0L7.5 12m4.5 4.5V3"/>
    </symbol>

    <!-- PPT / Presentation — rectangle + stand -->
    <symbol id="icon-dl-ppt" viewBox="0 0 24 24">
      <path stroke-linejoin="round" d="M3.75 3h16.5M3.75 3v13.5a.75.75 0 0 0 .75.75h15a.75.75 0 0 0 .75-.75V3M3.75 3H3m17.25 0H21M12 17.25v3.75m-3 0h6"/>
    </symbol>

    <!-- Video — play circle -->
    <symbol id="icon-dl-video" viewBox="0 0 24 24">
      <circle cx="12" cy="12" r="9"/>
      <path stroke-linejoin="round" d="m15.75 12-6.75 3.75V8.25L15.75 12Z"/>
    </symbol>

  </defs>
</svg>
